<!--?xml version="1.0" encoding="utf-8"?-->
<!-- Generator: Adobe Illustrator 24.1.1, SVG Export Plug-In . SVG Version: 6.00 Build 0)  -->
<svg version="1.1" id="_x31_0" xmlns="http://www.w3.org/2000/svg" xmlns:xlink="http://www.w3.org/1999/xlink" x="0px" y="0px" viewBox="0 0 512 512" style="width: 256px; height: 256px; opacity: 1;" xml:space="preserve">
<style type="text/css">
	.st0{fill:#374149;}
</style>
<g>
	<path class="st0" d="M56.432,60.923h399.07c2.38,0,3.346-4.808,1.411-6.869l-4.532-4.925c-1.488-1.6-2.526-3.89-3.048-6.524H62.524
		c-0.446,2.634-1.56,4.924-3.048,6.524l-4.456,4.925C53.086,56.115,54.051,60.923,56.432,60.923z" style="fill: rgb(237, 58, 80);"></path>
	<path class="st0" d="M478.62,110.157c-9.587,0-18.502,4.086-24.82,11.147l-4.83,4.307v-14.656v-22.44
		c0-2.605,1.336-5.13,3.491-6.611l4.459-3.201c1.931-1.335,0.966-4.456-1.411-4.456H56.435c-2.377,0-3.342,3.121-1.411,4.456
		l4.532,3.201c2.155,1.481,3.418,4.006,3.418,6.611v22.44v14.583l-4.754-4.234c-6.318-7.062-15.31-11.147-24.824-11.147
		c-13.375,0-24.969,7.577-30.394,19.693c-5.425,11.964-3.418,25.637,5.353,35.598l40.648,46.149l4.459,4.978h9.511v182.37
		c0,17.018,5.279,26.159,11.147,31.508c12.711,14.939,53.287,38.942,181.85,38.942c128.564,0,169.143-23.93,181.85-38.942
		c5.871-5.349,11.147-14.49,11.147-31.508v-182.37h9.587l4.456-4.978l40.652-46.077c8.77-10.033,10.774-23.706,5.276-35.818
		C503.589,117.734,491.922,110.157,478.62,110.157z M197.634,189.45c-13.227,22.814-39.016,32.622-57.594,21.921
		c-18.579-10.774-22.962-37.974-9.809-60.787c13.227-22.89,39.016-32.698,57.594-21.925
		C206.405,139.36,210.788,166.561,197.634,189.45z M16.603,135.87c2.972-6.691,9.438-10.85,16.794-10.85
		c5.502,0,10.705,2.45,14.195,6.687l15.382,13.75l12.933,11.517v18.652l-12.933-12.483l-24.595-23.854
		c-0.82-1.042-1.934-1.71-3.197-2.083l-1.786-0.298c-3.937,0-5.574,2.976-5.943,3.865c-0.37,0.893-1.488,4.013,1.041,6.913
		l34.48,39.237l2.529,2.899h10.404v11.891H60.151l-40.648-46.077C14.67,150.138,13.555,142.557,16.603,135.87z M436.114,189.821
		h10.403l2.453-2.823l34.556-39.313c2.526-2.9,1.412-6.02,1.042-6.913c-0.374-0.889-2.006-3.865-5.947-3.865l-1.782,0.298
		c-1.266,0.374-2.381,1.042-3.197,2.083l-24.672,23.854l-12.856,12.483v-18.652l12.856-11.445l15.455-13.822
		c3.494-4.238,8.698-6.687,14.195-6.687c7.358,0,13.822,4.158,16.797,10.85c3.045,6.687,1.93,14.268-2.899,19.766l-40.652,46.077
		h-15.752V189.821z" style="fill: rgb(237, 58, 80);"></path>
</g>
</svg>
