<!--?xml version="1.0" encoding="utf-8"?-->
<!-- Generator: Adobe Illustrator 24.1.1, SVG Export Plug-In . SVG Version: 6.00 Build 0)  -->
<svg version="1.1" id="_x31_0" xmlns="http://www.w3.org/2000/svg" xmlns:xlink="http://www.w3.org/1999/xlink" x="0px" y="0px" viewBox="0 0 512 512" style="width: 256px; height: 256px; opacity: 1;" xml:space="preserve">
<style type="text/css">
	.st0{fill:#374149;}
</style>
<g>
	<path class="st0" d="M419.174,18.934l-10.98-10.676C402.666,2.953,395.397,0,387.823,0c-2.348,0-4.695,0.305-6.965,0.836
		c-9.618,2.195-17.57,9.164-20.977,18.629L228.948,369.859l-1.137,3.027c-13.859-4.465-30.141-6.965-47.863-6.965
		c-53.539,0-93.902,22.719-93.902,52.778c0,50.59,43.016,93.301,93.902,93.301c50.89,0,93.906-42.711,93.906-93.301
		c0-8.023-2.801-15.449-8.027-22.11l2.042-5.453L393.128,57.859l1.034-2.824l0.024-0.054c0.836,0.378,1.738,0.679,2.57,0.984
		c2.652,0.832,4.773,1.133,6.894,1.133c6.133,0,11.965-2.496,16.129-6.886C428.186,41.578,428.033,27.492,419.174,18.934z
		 M398.049,38.851l-8.789-12.797h-0.223l-0.305,0.227l-0.91,2.57l-8.86,23.707l-92.758,246.828l-32.39,86.039
		c-0.516-0.438-1.031-0.812-1.621-1.179l-1.817-1.821l-7.27-7.27L374.116,24.614c1.668-4.622,5.527-7.954,10.375-9.012
		c1.062-0.305,2.199-0.457,3.332-0.457c3.637,0,7.117,1.441,9.843,4.015l10.985,10.602c2.801,2.726,2.875,7.27,0.148,10.074
		c-1.363,1.438-3.258,2.117-5.148,2.117c-0.68,0-1.363-0.152-2.122-0.374C400.014,41.121,398.877,40.137,398.049,38.851z
		 M179.948,381.066c25.297,0,47.863,5.754,62.25,14.614c6.891,4.242,11.891,9.164,14.462,14.538c1.367,2.727,2.05,5.532,2.05,8.481
		c0,41.957-35.293,78.156-78.762,78.156c-43.465,0-78.754-36.199-78.754-78.156C101.194,397.953,136.483,381.066,179.948,381.066z" style="fill: rgb(237, 58, 80);"></path>
	<path class="st0" d="M246.893,428.851c-7.196-14.465-34.379-25.218-66.946-25.218c-32.488,0-59.672,10.754-66.867,25.218
		c7.043,14.462,34.379,25.29,66.867,25.29C212.514,454.141,239.85,443.313,246.893,428.851z" style="fill: rgb(237, 58, 80);"></path>
</g>
</svg>
